<svg xmlns="http://www.w3.org/2000/svg" xmlns:svg="http://www.w3.org/2000/svg" xmlns:xlink="http://www.w3.org/1999/xlink" width="100%" height="100%" viewBox="0 0 400 400" preserveAspectRatio="none meet" fill="#FFFFFF"><defs><path stroke="black" fill="none" style="vector-effect: non-scaling-stroke; stroke-width: 1px;"/><polygon stroke="black" fill="none" style="vector-effect: non-scaling-stroke; stroke-width: 1px;"/></defs><rect x="0" y="0" width="400" height="400" style="fill: none; stroke: none;"/><path d="M 4 0 v -1.5 a 2 2 0 0 0 -2 -2 h -4 a 2 2 0 0 0 -2 2 v 3 a 2 2 0 0 0 2 2 h 4 a 2 2 0 0 0 2 -2 Z" stroke="black" style="vector-effect: non-scaling-stroke; stroke-width: 1px;" fill="none" transform="matrix(0 0 0 0 19.1465 17.9931)"/><path d="M -2 -4 l -2 4 l 2 4 h 4 l 2 -4 l -2 -4 Z" stroke="black" style="vector-effect: non-scaling-stroke; stroke-width: 4px;" transform="matrix(48.5852 0 0 48.6449 199.797 199.883)"/></svg>