<svg xmlns="http://www.w3.org/2000/svg" xmlns:svg="http://www.w3.org/2000/svg" xmlns:xlink="http://www.w3.org/1999/xlink" width="100%" height="100%" viewBox="0 0 400 400" preserveAspectRatio="none meet"><defs><path stroke="black" fill="none" style="vector-effect: non-scaling-stroke; stroke-width: 1px;"/><polygon stroke="black" fill="none" style="vector-effect: non-scaling-stroke; stroke-width: 1px;"/><line stroke="black" style="fill: none; vector-effect: non-scaling-stroke; stroke-width: 1px;"/></defs><rect x="0" y="0" width="400" height="400" style="fill: none; stroke: none;"/><path d="M 4 0 v -1.5 a 2 2 0 0 0 -2 -2 h -4 a 2 2 0 0 0 -2 2 v 3 a 2 2 0 0 0 2 2 h 4 a 2 2 0 0 0 2 -2 Z" stroke="black" style="vector-effect: non-scaling-stroke; stroke-width: 1px;" fill="none" transform="matrix(0 0 0 0 19.1465 17.9931)"/><rect x="15.4556" y="7.38178" stroke="black" style="stroke-width: 4px; vector-effect: non-scaling-stroke;" width="353.864" height="363.091" rx="0" transform="matrix(1.09781 0 0 1.06775 -10.9747 -1.72793)" ry="0"/><line x1="49.1349" y1="6.45905" x2="49.1349" y2="393.527" stroke="black" style="stroke-width: 4px; vector-effect: non-scaling-stroke; fill: none;" transform="matrix(1 0 0 1 0 -0.461361)"/><line x1="343.022" y1="6.45905" x2="343.023" y2="394.454" stroke="black" style="stroke-width: 4px; vector-effect: non-scaling-stroke; fill: none;" transform="matrix(1 0 0 1 6.45905 0)"/></svg>